<?xml version="1.0" encoding="iso-8859-1"?>
<!-- Generator: Adobe Illustrator 19.0.0, SVG Export Plug-In . SVG Version: 6.00 Build 0)  -->
<svg version="1.1" id="Capa_1" xmlns="http://www.w3.org/2000/svg" xmlns:xlink="http://www.w3.org/1999/xlink" x="0px" y="0px"
	 viewBox="0 0 512.002 512.002" style="enable-background:new 0 0 512.002 512.002;" xml:space="preserve">
<path style="fill:#59AA33;" d="M61.545,255.943c0,96.239,34.717,160.424,66.485,199.024V56.914
	C96.261,95.516,61.545,159.704,61.545,255.943z"/>
<path style="fill:#A3ED5C;" d="M174.52,50.953v409.91c33.006-37.81,71.484-103.601,71.484-204.92
	C246.003,154.223,207.527,88.609,174.52,50.953z"/>
<polygon style="fill:#F1F2F2;" points="419.262,306.407 323.319,257.069 323.319,306.407 321.617,306.407 225.674,257.069 
	225.674,306.407 223.972,306.407 128.03,257.069 128.03,502.004 501.945,502.004 501.945,306.407 "/>
<g>
	<rect x="197.345" y="370.566" style="fill:#12ADDD;" width="41.698" height="65.985"/>
	<rect x="305.991" y="370.566" style="fill:#12ADDD;" width="42.09" height="65.985"/>
	<rect x="417.295" y="370.566" style="fill:#12ADDD;" width="39.616" height="65.985"/>
</g>
<polygon style="fill:#0C64BC;" points="451.622,95.372 451.622,306.407 484.949,306.407 484.949,75.152 "/>
<path style="fill:#A3ED5C;" d="M394.031,92.018h-58.586c-29.887,0-54.117-24.228-54.117-54.117v-7.869h58.586
	c29.887,0,54.117,24.228,54.117,54.117V92.018z"/>
<path d="M239.047,360.569h-65.985c-5.521,0-9.998,4.477-9.998,9.998v65.985c0,5.521,4.477,9.998,9.998,9.998h65.985
	c5.521,0,9.998-4.477,9.998-9.998v-65.985C249.045,365.045,244.568,360.569,239.047,360.569z M229.049,426.553H183.06v-45.99h45.989
	V426.553z"/>
<path d="M348.077,360.569h-65.985c-5.521,0-9.998,4.477-9.998,9.998v65.985c0,5.521,4.477,9.998,9.998,9.998h65.985
	c5.521,0,9.998-4.477,9.998-9.998v-65.985C358.075,365.045,353.599,360.569,348.077,360.569z M338.079,426.553h-45.99v-45.99h45.99
	V426.553z"/>
<path d="M456.913,360.569h-65.985c-5.521,0-9.998,4.477-9.998,9.998v65.985c0,5.521,4.477,9.998,9.998,9.998h65.985
	c5.521,0,9.998-4.477,9.998-9.998v-65.985C466.911,365.045,462.434,360.569,456.913,360.569z M446.915,426.553h-45.99v-45.99h45.99
	V426.553z"/>
<path d="M501.945,296.409h-6.998V75.152c0-3.61-1.947-6.94-5.094-8.712c-3.145-1.771-7.003-1.709-10.091,0.165l-63.985,38.823
	c-2.987,1.813-4.812,5.053-4.812,8.547v176.924l-83.075-42.72c-3.098-1.593-6.804-1.459-9.78,0.357
	c-2.975,1.816-4.79,5.049-4.79,8.534v33.829l-83.074-42.72c-3.098-1.593-6.804-1.459-9.78,0.357s-4.79,5.049-4.79,8.534v33.829
	l-83.075-42.72c-3.098-1.593-6.804-1.459-9.78,0.357s-4.79,5.049-4.79,8.534v48.719l-75.543-75.543
	c-3.905-3.904-10.234-3.904-14.14,0c-3.904,3.904-3.904,10.235,0,14.14l89.611,89.611c0.023,0.023,0.048,0.042,0.071,0.064v74.598
	L71.983,362.61c-3.905-3.903-10.234-3.903-14.14,0c-3.904,3.904-3.904,10.235,0,14.14l60.186,60.186v45.414
	c-10.88-8.819-26.291-23.163-41.585-43.708c-25.725-34.557-56.392-94.307-56.392-182.7s30.67-148.142,56.395-182.703
	c20.921-28.105,42.083-44.634,51.518-51.237c23.774,16.714,96.248,77.484,106.755,202.731c0.461,5.502,5.287,9.592,10.799,9.127
	c5.503-0.461,9.589-5.296,9.127-10.799c-5.319-63.409-25.935-118.889-61.274-164.897c-24.723-32.187-49.679-49.975-59.26-56.128
	l-0.291-0.188c-3.155-2.243-7.383-2.484-10.812-0.493c-1.277,0.742-31.599,18.621-61.962,59.091
	c-17.735,23.64-31.861,50.186-41.984,78.903C6.452,175.115,0.059,214.343,0.059,255.943s6.394,80.829,19.003,116.594
	c10.124,28.717,24.249,55.263,41.984,78.901c27.15,36.185,54.251,54.296,60.597,58.256c1.733,1.441,3.958,2.307,6.387,2.307h373.915
	c5.521,0,9.998-4.477,9.998-9.998V306.407C511.943,300.885,507.466,296.409,501.945,296.409z M430.961,119.604l43.99-26.691v203.496
	h-43.99V119.604z M491.947,492.005H138.028V273.452l81.373,41.844c1.415,0.728,2.981,1.107,4.572,1.107h1.702
	c5.521,0,9.998-4.477,9.998-9.998v-32.954l81.372,41.844c1.415,0.728,2.981,1.107,4.572,1.107h1.702
	c5.521,0,9.998-4.477,9.998-9.998V273.45l81.373,41.844c1.415,0.728,2.981,1.107,4.572,1.107h72.685L491.947,492.005
	L491.947,492.005z"/>
<path d="M128.03,227.515c5.521,0,9.998-4.476,9.998-9.998v-77.415c0.402-0.296,0.792-0.614,1.155-0.977l33.874-33.874
	c3.904-3.904,3.904-10.235,0-14.14c-3.905-3.904-10.234-3.904-14.14,0l-20.89,20.89V90.815c0-5.522-4.477-9.998-9.998-9.998
	c-5.521,0-9.998,4.476-9.998,9.998v80.827l-46.925-46.924c-3.905-3.904-10.234-3.904-14.14,0c-3.904,3.904-3.904,10.235,0,14.139
	l58.994,58.993c0.632,0.632,1.333,1.151,2.071,1.578v18.09C118.033,223.039,122.509,227.515,128.03,227.515z"/>
<path d="M128.03,69.485c2.629,0,5.209-1.07,7.067-2.929c1.86-1.86,2.93-4.439,2.93-7.068c0-2.629-1.07-5.209-2.93-7.068
	c-1.859-1.86-4.438-2.929-7.067-2.929c-2.629,0-5.209,1.07-7.068,2.929c-1.86,1.86-2.929,4.439-2.929,7.068
	c0,2.629,1.069,5.209,2.929,7.068C122.822,68.415,125.401,69.485,128.03,69.485z"/>
<path d="M173.062,250.456c2.559,0,5.117-0.976,7.069-2.928l31.759-31.759c3.904-3.904,3.904-10.235,0-14.14
	c-3.905-3.904-10.234-3.904-14.14,0l-31.759,31.759c-3.904,3.904-3.904,10.235,0,14.14
	C167.945,249.48,170.503,250.456,173.062,250.456z"/>
<path d="M335.447,102.016h58.586c5.521,0,9.998-4.476,9.998-9.998v-7.87c0-35.352-28.762-64.113-64.114-64.113H281.33
	c-5.521,0-9.998,4.476-9.998,9.998v7.87C271.333,73.254,300.094,102.016,335.447,102.016z M293.115,50.327l65.894,31.693h-23.562
	C315.432,82.02,298.493,68.624,293.115,50.327z M382.124,71.304c-0.625-0.523-1.315-0.986-2.083-1.355L317.835,40.03h22.081
	C359.777,40.03,376.611,53.223,382.124,71.304z"/>
<g>
</g>
<g>
</g>
<g>
</g>
<g>
</g>
<g>
</g>
<g>
</g>
<g>
</g>
<g>
</g>
<g>
</g>
<g>
</g>
<g>
</g>
<g>
</g>
<g>
</g>
<g>
</g>
<g>
</g>
</svg>
